<svg xmlns="http://www.w3.org/2000/svg" class="svg-standalone-icon" width="100%"
     viewBox="205.39540348519088 186.84553605012508 96.00473290611276 74.67034994930401">
    <g  fill="#f0b323" data-paper-data="{&quot;isIcon&quot;:&quot;true&quot;,&quot;iconType&quot;:&quot;icon&quot;,&quot;rawIconId&quot;:&quot;721878&quot;,&quot;selectedEffects&quot;:{&quot;container&quot;:&quot;&quot;,&quot;transformation&quot;:&quot;&quot;,&quot;pattern&quot;:&quot;&quot;},&quot;isDetailed&quot;:false,&quot;fillRule&quot;:&quot;evenodd&quot;,&quot;bounds&quot;:{&quot;x&quot;:205.39540348519088,&quot;y&quot;:186.84553605012508,&quot;width&quot;:96.00473290611276,&quot;height&quot;:74.67034994930401},&quot;iconStyle&quot;:&quot;icon-in-text&quot;,&quot;suitableAsStandaloneIcon&quot;:true}" fill-rule="evenodd"><path d="M205.3954,195.37929v-8.53376h96.00473v8.53376zM293.9331,191.11241c0,1.17339 0.96005,2.13344 2.13344,2.13344c1.17339,0 2.13344,-0.96005 2.13344,-2.13344c0,-1.17339 -0.96005,-2.13344 -2.13344,-2.13344c-1.17339,0 -2.13344,0.96005 -2.13344,2.13344zM301.40014,261.51589h-96.00473v-64.00315h96.00473zM257.34463,213.08683l-2.34678,-0.42669l-5.65361,33.28164l2.34678,0.42669zM244.65067,217.67372l-1.70675,-1.70675l-13.54733,13.54733l13.54733,13.54733l1.70675,-1.70675l-11.84059,-11.84059zM263.85162,215.96697l-1.70675,1.70675l11.84059,11.84059l-11.84059,11.84059l1.70675,1.70675l13.54733,-13.54733z" data-paper-data="{&quot;isPathIcon&quot;:true}"></path></g>
</svg>